<svg id="Layer_1"
     xmlns="http://www.w3.org/2000/svg"
     viewBox="0 0 20 18"
     width="20"
     height="18">
    <defs>
        <style>.cls-1 {
            fill: none;
        }

        .cls-2 {
            fill: #d6d6d6;
        }</style>
    </defs>
    <g id="_Color">
        <path class="cls-1"
              d="m10,18l-1.45-1.3C3.4,12.12,0,9.1,0,5.4,0,2.42,2.42,0,5.4,0c.03,0,.07,0,.1,0,1.72,0,3.36.76,4.5,2.05C11.14.76,12.78.01,14.5,0c2.98-.06,5.44,2.32,5.5,5.3,0,.03,0,.07,0,.1,0,3.71-3.4,6.73-8.55,11.32l-1.45,1.28Z" />
        <path class="cls-2"
              d="m10,18l-1.45-1.29C3.4,12.13,0,9.1,0,5.4,0,2.37,2.42,0,5.5,0,7.24,0,8.91.8,10,2.05,11.09.8,12.76,0,14.5,0,17.58,0,20,2.37,20,5.4c0,3.71-3.4,6.73-8.55,11.32l-1.45,1.29Z" />
    </g>
</svg>
