<svg xmlns="http://www.w3.org/2000/svg" width="20" height="18" viewBox="0 0 20 18">
  <g id="_Color" data-name=" ↳Color" fill="none" stroke-miterlimit="10">
    <path d="M10,18,8.55,16.705C3.4,12.124,0,9.1,0,5.4A5.4,5.4,0,0,1,5.5,0,6.037,6.037,0,0,1,10,2.05,6.037,6.037,0,0,1,14.5,0,5.4,5.4,0,0,1,20,5.4c0,3.708-3.4,6.729-8.55,11.32Z" stroke="none"/>
    <path d="M 10.00253105163574 16.66158294677734 L 10.82409000396729 15.93330001831055 C 15.74744987487793 11.5446195602417 19 8.645290374755859 19 5.395100116729736 C 19 2.930560111999512 17.02335929870605 1 14.5 1 C 13.08228969573975 1 11.68233966827393 1.637639999389648 10.75514984130859 2.705699920654297 L 10 3.575560092926025 L 9.244850158691406 2.705699920654297 C 8.317660331726074 1.637639999389648 6.917709827423096 1 5.5 1 C 2.976639986038208 1 1 2.930560111999512 1 5.395100116729736 C 1 8.651089668273926 4.262899875640869 11.55344009399414 9.201919555664062 15.94670009613037 L 10.00253105163574 16.66158294677734 M 10 18 L 8.550000190734863 16.70517921447754 C 3.400000095367432 12.1242504119873 0 9.102999687194824 0 5.395100116729736 C 0 2.373840093612671 2.420000076293945 0 5.5 0 C 7.239999771118164 0 8.909999847412109 0.7945500016212463 10 2.050139904022217 C 11.09000015258789 0.7945500016212463 12.76000022888184 0 14.5 0 C 17.57999992370605 0 20 2.373840093612671 20 5.395100116729736 C 20 9.102999687194824 16.60000038146973 12.1242504119873 11.44999980926514 16.71499061584473 L 10 18 Z" stroke="none" fill="#d6d6d6"/>
  </g>
</svg>
