<svg xmlns="http://www.w3.org/2000/svg" width="76" height="76" viewBox="0 0 76 76"><defs><clipPath id="soera"><path d="M38 9c15.464 0 28 12.536 28 28S53.464 65 38 65 10 52.464 10 37 22.536 9 38 9z"/></clipPath></defs><g><g><g><g><g><g><path fill="#fff" d="M38 65c-15.464 0-28-12.536-28-28S22.536 9 38 9s28 12.536 28 28-12.536 28-28 28z"/></g><g><path fill="#fff" d="M38 65c-15.464 0-28-12.536-28-28S22.536 9 38 9s28 12.536 28 28-12.536 28-28 28z"/></g><g><path fill="#fff" d="M38 65c-15.464 0-28-12.536-28-28S22.536 9 38 9s28 12.536 28 28-12.536 28-28 28z"/></g></g><g><path fill="#121212" d="M38 65c-15.464 0-28-12.536-28-28S22.536 9 38 9s28 12.536 28 28-12.536 28-28 28z"/></g><g><path fill="#fff" fill-opacity=".09" d="M38 65c-15.464 0-28-12.536-28-28S22.536 9 38 9s28 12.536 28 28-12.536 28-28 28z"/></g></g><g><g><path fill="#fff" d="M38 9c15.464 0 28 12.536 28 28S53.464 65 38 65 10 52.464 10 37 22.536 9 38 9z"/></g><g clip-path="url(#soera)"><path fill="#bb86fc" d="M10 65V9h56v56z"/></g></g><g><g><g><path fill="#8979f2" d="M38 65c-15.464 0-28-12.536-28-28S22.536 9 38 9s28 12.536 28 28-12.536 28-28 28z"/></g></g></g></g><g><g/><g><path fill="#fff" d="M44.879 33.87l1.83-1.828a.999.999 0 0 0 0-1.41l-2.34-2.34a.993.993 0 0 0-1.41 0l-1.83 1.83 3.749 3.749zm-1.07 1.071l-3.75-3.75L29 42.252V46l3.749-.002.001.002z"/></g></g></g></g></svg>