<svg xmlns="http://www.w3.org/2000/svg" width="72" height="72" viewBox="0 0 72 72"><defs><clipPath id="vjrka"><path d="M36 7c15.464 0 28 12.536 28 28S51.464 63 36 63 8 50.464 8 35 20.536 7 36 7z"/></clipPath></defs><g><g><g><g><g><g><path fill="#fff" d="M36 63C20.536 63 8 50.464 8 35S20.536 7 36 7s28 12.536 28 28-12.536 28-28 28z"/></g><g><path fill="#fff" d="M36 63C20.536 63 8 50.464 8 35S20.536 7 36 7s28 12.536 28 28-12.536 28-28 28z"/></g><g><path fill="#fff" d="M36 63C20.536 63 8 50.464 8 35S20.536 7 36 7s28 12.536 28 28-12.536 28-28 28z"/></g></g><g><path fill="#121212" d="M36 63C20.536 63 8 50.464 8 35S20.536 7 36 7s28 12.536 28 28-12.536 28-28 28z"/></g><g><path fill="#fff" fill-opacity=".09" d="M36 63C20.536 63 8 50.464 8 35S20.536 7 36 7s28 12.536 28 28-12.536 28-28 28z"/></g></g><g><g><path fill="#fff" d="M36 7c15.464 0 28 12.536 28 28S51.464 63 36 63 8 50.464 8 35 20.536 7 36 7z"/></g><g clip-path="url(#vjrka)"><path fill="#bb86fc" d="M8 63V7h56v56z"/></g></g><g><g><g><path fill="#8979f2" d="M36 63C20.536 63 8 50.464 8 35S20.536 7 36 7s28 12.536 28 28-12.536 28-28 28z"/></g></g></g></g><g><g/><g><path fill="#fff" d="M43 36h-6v6h-2v-6h-6v-2h6v-6h2v6h6z"/></g></g></g></g></svg>